<svg version="1.1" id="Layer_1" xmlns="http://www.w3.org/2000/svg" xmlns:xlink="http://www.w3.org/1999/xlink" x="0px" y="0px" viewBox="0 0 500 500" style="width: 180px;" xml:space="preserve" data-imageid="diversity-84" imageName="Diversity" class="illustrations_image">
<style type="text/css">
	.st0_diversity-84{fill:#68E1FD;}
	.st1_diversity-84{fill:#093F68;}
	.st2_diversity-84{fill:#70CC40;}
	.st3_diversity-84{fill:#725858;}
	.st4_diversity-84{fill:#FFC9B0;}
	.st5_diversity-84{fill:#FFBC0E;}
	.st6_diversity-84{fill:#FFE8E1;}
	.st7_diversity-84{fill:#E28362;}
	.st8_diversity-84{fill:#F56132;}
</style>
<g id="character-3_diversity-84">
	<path class="st0_diversity-84 targetColor" d="M447.3,315.7v44.2c-7.1,3.3-14.4,6-22,7.9c-6.4,1.6-12.9,2.7-19.5,3.1c-3,0.3-6.1,0.4-9.2,0.4&#10;&#9;&#9;c-2.7,0-5.3-0.1-8-0.3c-6.9-0.5-13.7-1.5-20.4-3.1c-7.6-1.8-14.9-4.5-22-7.8v-44.4c0-18.9,15.3-34.2,34.2-34.2c0,0,0,0,0,0h32.6&#10;&#9;&#9;C432,281.5,447.3,296.8,447.3,315.7C447.3,315.7,447.3,315.7,447.3,315.7z" style="fill: rgb(104, 225, 253);"/>
	<path class="st1_diversity-84" d="M396.6,373.1c-2.8,0-5.5-0.1-8.1-0.3c-7-0.5-13.9-1.5-20.7-3.2c-7.7-1.9-15.2-4.5-22.4-7.9&#10;&#9;&#9;c-0.6-0.3-1-0.9-1-1.6v-44.4c0-19.9,16.1-36,36-36h32.7c19.9,0,36,16.1,36,36v44.2c0,0.7-0.4,1.3-1,1.6c-7.2,3.4-14.7,6.1-22.4,8&#10;&#9;&#9;c-6.5,1.6-13.1,2.7-19.7,3.2C402.9,373,399.8,373.1,396.6,373.1z M348,358.9c6.6,3,13.6,5.4,20.7,7.2c6.6,1.6,13.3,2.6,20.1,3.1&#10;&#9;&#9;c12.1,0.8,24.3-0.3,36.1-3.2c7.1-1.8,14-4.2,20.7-7.2v-43.1c0-17.9-14.5-32.4-32.4-32.4h-32.7c-17.9,0-32.4,14.5-32.4,32.4V358.9z&#10;&#9;&#9; M447.3,359.9L447.3,359.9z"/>
	<path class="st2_diversity-84" d="M405.8,284.8v86.1c-3,0.3-6.1,0.4-9.2,0.4c-2.7,0-5.3-0.1-8-0.3v-86.2H405.8z"/>
	<path class="st1_diversity-84" d="M396.6,373.1c-2.8,0-5.5-0.1-8.1-0.3c-0.9-0.1-1.7-0.8-1.7-1.8v-86.2c0-1,0.8-1.8,1.8-1.8h17.2&#10;&#9;&#9;c1,0,1.8,0.8,1.8,1.8v86.1c0,0.9-0.7,1.7-1.6,1.8C402.9,373,399.8,373.1,396.6,373.1z M390.4,369.3c4.5,0.2,9.1,0.2,13.6-0.1v-82.6&#10;&#9;&#9;h-13.6V369.3z"/>
	<path class="st3_diversity-84" d="M392.5,142.1c2.1-0.3,4.3-0.5,6.4-0.5c9.9,0,20-0.2,29,4.2c18.6,9.2,30.4,28.1,30.5,48.9l-2.1,40.5H337.8&#10;&#9;&#9;c-0.7-2.4,0.4-5.2,0.5-7.6c0.1-2.7-0.6-5.2-1.2-7.8c-1.4-6.6-2.2-13.3-2.4-20.1c-0.2-10.8,2.4-21,6.5-30.9&#10;&#9;&#9;c2.4-5.9,5.2-11.9,10.4-15.6s13.4-3.8,17.1,1.4C375,147.9,383.4,143.5,392.5,142.1z"/>
	<path class="st1_diversity-84" d="M456.3,236.9H339.2c-1.5,0-3,0-3.1-1.5c-0.3-1.9-0.3-3.8,0.2-5.6c0.1-0.8,0.3-1.6,0.3-2.4&#10;&#9;&#9;c0-1.9-0.3-3.8-0.8-5.6c-0.1-0.6-0.3-1.1-0.4-1.7c-1.4-6.7-2.2-13.5-2.4-20.4c-0.1-10,2-20.4,6.6-31.6c2.4-5.9,5.4-12.4,11-16.4&#10;&#9;&#9;c5.2-3.7,13.4-4.2,18.2,0.2c6.4-6.2,14.6-10.3,23.4-11.6l0,0c2.2-0.3,4.5-0.5,6.7-0.5h1.8c9.4,0,19.2,0,28,4.3&#10;&#9;&#9;c19.2,9.5,31.4,29,31.5,50.5c0,0.1,0,0.1-2.1,40.6C458,236.1,457.2,236.9,456.3,236.9z M339.4,233.3h115.2c0.4-7.6,2-38.5,2-38.8&#10;&#9;&#9;c-0.1-20-11.5-38.3-29.5-47.1c-8.1-4-17.4-4-26.4-4h-1.8c-2,0-4.1,0.2-6.1,0.5c-8.7,1.3-16.7,5.5-22.7,11.9&#10;&#9;&#9;c-0.7,0.7-1.8,0.8-2.5,0.1c-0.1-0.1-0.2-0.2-0.2-0.3c-3.1-4.3-10.2-4-14.6-0.9c-4.8,3.4-7.5,9.2-9.8,14.8&#10;&#9;&#9;c-4.4,10.8-6.5,20.6-6.4,30.2c0.2,6.6,0.9,13.2,2.3,19.7c0.1,0.6,0.2,1.1,0.4,1.7c0.6,2.1,0.9,4.4,0.9,6.6&#10;&#9;&#9;c-0.1,0.9-0.2,1.9-0.4,2.8C339.6,231.4,339.4,232.4,339.4,233.3L339.4,233.3z"/>
	<path class="st4_diversity-84" d="M388.6,274.9h17.2l0,0v13.1c0,2.2-1.8,4.1-4.1,4.1h-9.1c-2.2,0-4.1-1.8-4.1-4.1L388.6,274.9L388.6,274.9z"/>
	<path class="st1_diversity-84" d="M398.5,293.9h-2.6c-5,0-9.1-4.1-9.1-9.1v-9.9c0-1,0.8-1.8,1.8-1.8h17.2c1,0,1.8,0.8,1.8,1.8c0,0,0,0,0,0v9.9&#10;&#9;&#9;C407.6,289.8,403.5,293.9,398.5,293.9z M390.4,276.7v8.1c0,3,2.5,5.5,5.5,5.5h2.6c3,0,5.5-2.5,5.5-5.5v-8.1H390.4z"/>
	<ellipse class="st4_diversity-84" cx="350.9" cy="230.2" rx="15.7" ry="14.4"/>
	<path class="st1_diversity-84" d="M350.9,246.4c-9.7,0-17.5-7.3-17.5-16.2s7.9-16.2,17.5-16.2s17.5,7.3,17.5,16.2S360.6,246.4,350.9,246.4z&#10;&#9;&#9; M350.9,217.6c-7.7,0-13.9,5.6-13.9,12.6s6.2,12.6,13.9,12.6s13.9-5.7,13.9-12.6S358.6,217.6,350.9,217.6L350.9,217.6z"/>
	<ellipse class="st4_diversity-84" cx="442.6" cy="230.2" rx="15.7" ry="14.4"/>
	<path class="st1_diversity-84" d="M442.6,246.4c-9.7,0-17.5-7.3-17.5-16.2S433,214,442.6,214s17.5,7.3,17.5,16.2S452.3,246.4,442.6,246.4z&#10;&#9;&#9; M442.6,217.6c-7.7,0-13.9,5.6-13.9,12.6s6.3,12.6,13.9,12.6s13.9-5.7,13.9-12.6S450.3,217.6,442.6,217.6L442.6,217.6z"/>
	<path class="st4_diversity-84" d="M397.2,277.2L397.2,277.2c-27.8,0-50.4-22.6-50.4-50.4v-27.1c0,0,12.7-7.2,16.5-18.6c0,0,19.4,22,38,20.5&#10;&#9;&#9;c15.5-1.3,31-3.5,46.3-6.5v31.7C447.6,254.6,425,277.1,397.2,277.2z"/>
	<path class="st1_diversity-84" d="M397.2,279c-28.8,0-52.2-23.4-52.2-52.2v-27.2c0-0.6,0.4-1.2,0.9-1.6c0.1-0.1,12.1-7,15.6-17.6&#10;&#9;&#9;c0.3-0.9,1.3-1.5,2.3-1.1c0.3,0.1,0.6,0.3,0.8,0.5c0.2,0.2,19,21.4,36.5,19.9c15.5-1.3,30.9-3.5,46.1-6.4c1-0.2,1.9,0.4,2.1,1.4&#10;&#9;&#9;c0,0.1,0,0.2,0,0.4v31.7C449.4,255.6,426,279,397.2,279z M348.6,200.7v26.1c0.4,26.8,22.5,48.3,49.3,47.9&#10;&#9;&#9;c26.3-0.4,47.5-21.6,47.9-47.9v-29.6c-14.7,2.8-29.5,4.8-44.4,6.1c-16,1.3-32-13.4-37.6-19C359.8,193,351.4,198.9,348.6,200.7&#10;&#9;&#9;L348.6,200.7z"/>
	<path class="st1_diversity-84" d="M401.7,246.4c-3.1,0-6.2-0.2-9.3-0.6c-1-0.2-1.6-1.1-1.4-2.1c0.2-0.9,1-1.6,2-1.5c0.1,0,9.3,1.3,15.6,0l0,0&#10;&#9;&#9;c0.4-2.2-5.7-11.4-13.4-20.1c-0.7-0.7-0.6-1.9,0.1-2.5c0.7-0.7,1.9-0.6,2.5,0.1c0,0,0,0,0,0.1c4.8,5.4,15.7,18.7,14,23.8&#10;&#9;&#9;c-0.4,1.2-1.4,2.1-2.7,2.3C406.8,246.2,404.2,246.5,401.7,246.4z"/>
	<path class="st1_diversity-84" d="M368.2,369.7c-1,0-1.8-0.8-1.8-1.8v-49.3c0-1,0.8-1.8,1.8-1.8c1,0,1.8,0.8,1.8,1.8v49.3&#10;&#9;&#9;C370,368.9,369.2,369.7,368.2,369.7z"/>
	<path class="st1_diversity-84" d="M425.3,369.6c-1,0-1.8-0.8-1.8-1.8v-49.2c-0.1-1,0.7-1.9,1.7-1.9c1-0.1,1.9,0.7,1.9,1.7c0,0.1,0,0.2,0,0.3&#10;&#9;&#9;v49.2C427.1,368.8,426.3,369.6,425.3,369.6z"/>
</g>
<g id="character-2_diversity-84">
	<path class="st0_diversity-84 targetColor" d="M313.1,308v50.6c-36.1,17-77.9,16.9-113.8-0.4V308c0-21.2,17.2-38.5,38.4-38.5c0,0,0,0,0.1,0h36.8&#10;&#9;&#9;C295.8,269.5,313.1,286.7,313.1,308C313.1,308,313.1,308,313.1,308z" style="fill: rgb(104, 225, 253);"/>
	<path class="st1_diversity-84" d="M256.6,373.1c-20.1,0-40-4.5-58.1-13.3c-0.6-0.3-1-0.9-1-1.6V308c0-22.2,18-40.3,40.3-40.3c0,0,0,0,0,0h36.8&#10;&#9;&#9;c22.3,0,40.3,18,40.3,40.3c0,0,0,0,0,0v50.6c0,0.7-0.4,1.3-1,1.6C296,368.7,276.5,373.1,256.6,373.1L256.6,373.1z M201.1,357.1&#10;&#9;&#9;c7.5,3.6,15.4,6.4,23.4,8.4c29,7.4,59.6,4.6,86.8-8V308c0-20.3-16.4-36.7-36.7-36.7c0,0,0,0,0,0h-36.8c-20.3,0-36.7,16.4-36.7,36.7&#10;&#9;&#9;c0,0,0,0,0,0V357.1z M313.1,358.6L313.1,358.6z"/>
	<path class="st1_diversity-84" d="M224.1,369c-1,0-1.8-0.8-1.8-1.8v-49.3c0-1,0.8-1.8,1.8-1.8s1.8,0.8,1.8,1.8v49.4&#10;&#9;&#9;C225.9,368.2,225.1,369,224.1,369z"/>
	<path class="st1_diversity-84" d="M288.3,369.2c-1,0-1.8-0.8-1.8-1.8c0,0,0,0,0,0v-49.6c0-1,0.8-1.8,1.8-1.8c1,0,1.8,0.8,1.8,1.8v49.6&#10;&#9;&#9;C290.1,368.4,289.3,369.2,288.3,369.2L288.3,369.2z"/>
	<path class="st1_diversity-84" d="M257.9,222.8c-1.7,0-3.3-0.1-4.9-0.4c-1-0.2-1.6-1.2-1.3-2.2c0.2-0.9,1.1-1.5,2-1.4c2.4,0.4,4.8,0.4,7.2,0.1&#10;&#9;&#9;c0.1-1.6-1.7-6.8-4.2-11.6c-0.5-0.9-0.1-2,0.8-2.4c0.9-0.5,2-0.1,2.4,0.8c1.8,3.4,5.8,11.7,4.3,15c-0.4,0.8-1.1,1.5-2,1.7&#10;&#9;&#9;C260.7,222.6,259.3,222.8,257.9,222.8z"/>
	<path class="st5_diversity-84" d="M204.5,288.6c-1.9,3.3-3.4,7-4.2,10.7c0,0,33.2,13.9,57.6,13.9s54.2-13.9,54.2-13.9c-0.9-4-2.5-7.8-4.6-11.3&#10;&#9;&#9;c-2.6-4.3-6-8-10.1-11c8.9-11.1,12.7-28.1,12.7-51.9c0-46.8-15-83.6-54.2-83.6s-54.2,36.7-54.2,83.6c0,23.9,3.9,41,12.9,52.1&#10;&#9;&#9;C210.6,280.3,207.1,284.2,204.5,288.6z"/>
	<path class="st1_diversity-84" d="M257.9,315c-24.5,0-57-13.4-58.3-14c-0.8-0.3-1.3-1.2-1.1-2.1c2-8.6,6.8-16.4,13.6-22&#10;&#9;&#9;c-8.3-11.2-12.2-27.7-12.2-51.8c0-55,19.9-85.4,56-85.4s56,30.3,56,85.4c0,23.9-3.8,40.4-12,51.5c7,5.7,11.9,13.5,13.9,22.3&#10;&#9;&#9;c0.2,0.8-0.2,1.6-1,2C311.6,301.6,282.5,315,257.9,315z M202.4,298.2c6.6,2.6,34.6,13.1,55.5,13.1s46-10.4,52-13.1&#10;&#9;&#9;c-0.9-3.3-2.2-6.4-4-9.4c-2.5-4.1-5.8-7.7-9.6-10.5c-0.4-0.3-0.7-0.7-0.7-1.2c-0.1-0.5,0.1-1,0.4-1.4c8.4-10.5,12.3-26.6,12.3-50.7&#10;&#9;&#9;c0-30.5-6.8-81.8-52.4-81.8s-52.4,51.2-52.4,81.8c0,24.3,4,40.5,12.5,50.9c0.6,0.8,0.5,1.9-0.3,2.5c0,0,0,0-0.1,0&#10;&#9;&#9;c-3.9,2.9-7.2,6.6-9.7,10.8l0,0C204.5,292.3,203.3,295.2,202.4,298.2L202.4,298.2z M204.5,288.6L204.5,288.6z"/>
	<path class="st6_diversity-84" d="M258.2,273.8h-4.5c-21.9,0-39.7-17.8-39.7-39.7v-19.5c0-18.1,10.8-34.5,27.5-41.6l2.3-1c9-3.8,19.2-3.6,28,0.5&#10;&#9;&#9;l0,0c15.9,7.4,26.1,23.4,26.1,40.9v20.6C297.9,256,280.1,273.8,258.2,273.8C258.2,273.8,258.2,273.8,258.2,273.8z"/>
	<path class="st1_diversity-84" d="M258.2,275.6h-4.5c-22.9,0-41.5-18.6-41.5-41.5v-19.5c0-18.9,11.3-35.9,28.6-43.2l2.3-1&#10;&#9;&#9;c9.5-4,20.2-3.8,29.5,0.5c16.5,7.7,27.1,24.3,27.1,42.6V234C299.7,257,281.1,275.6,258.2,275.6z M257.3,171.1&#10;&#9;&#9;c-4.4,0-8.7,0.9-12.7,2.6l-2.3,1c-16,6.8-26.5,22.5-26.4,39.9v19.5c0,20.9,17,37.9,37.9,37.9h4.5c20.9,0,37.9-17,37.9-37.9v-20.6&#10;&#9;&#9;c0-16.8-9.8-32.2-25-39.3C266.7,172.1,262,171.1,257.3,171.1z"/>
	<path class="st1_diversity-84" d="M256.2,291.1c-1,0-1.8-0.7-1.9-1.7c0-1,0.7-1.8,1.7-1.9l0,0c18.3-1.2,40.3-12,40.5-12.1c0.9-0.4,2-0.1,2.4,0.8&#10;&#9;&#9;s0.1,2-0.8,2.4l0,0c-0.9,0.5-22.9,11.2-41.9,12.5L256.2,291.1z"/>
	<path class="st1_diversity-84" d="M237.4,289h-0.2c-11.6-1-23.2-10-23.6-10.3c-0.8-0.6-1-1.7-0.4-2.5c0.6-0.8,1.7-1,2.5-0.4c0,0,0.1,0.1,0.1,0.1&#10;&#9;&#9;c0.1,0.1,11.2,8.7,21.7,9.6c1,0.1,1.7,1,1.6,2C239,288.3,238.3,289,237.4,289L237.4,289z"/>
	<path class="st1_diversity-84" d="M262.6,304.4c-1,0-1.8-0.8-1.8-1.8c0-0.7,0.4-1.3,1.1-1.6c14.1-6.3,27.6-13.2,27.7-13.2c0.9-0.5,2-0.2,2.5,0.6&#10;&#9;&#9;s0.2,2-0.6,2.5c-0.1,0-0.1,0.1-0.2,0.1c-0.1,0.1-13.7,7-27.9,13.3C263.1,304.4,262.8,304.4,262.6,304.4z"/>
	<path class="st1_diversity-84" d="M258.6,237.5c-1.9,0-3.8-0.2-5.6-0.6c-1-0.2-1.6-1.1-1.4-2.1c0.2-1,1.1-1.6,2.1-1.4l0,0&#10;&#9;&#9;c2.3,0.5,5.9,0.8,7.7,0.2c0.1-2.4-3.4-11.6-7-19.1c-0.4-0.9,0-2,1-2.4c0.9-0.4,1.9,0,2.3,0.8c10.1,21.3,7.1,22.9,5.9,23.6&#10;&#9;&#9;C261.9,237.3,260.2,237.6,258.6,237.5z"/>
	<path class="st1_diversity-84" d="M257.9,373.1c-1,0-1.8-0.8-1.8-1.8v-58.1c0-1,0.8-1.8,1.8-1.8c1,0,1.8,0.8,1.8,1.8v58.1&#10;&#9;&#9;C259.7,372.3,258.9,373.1,257.9,373.1L257.9,373.1z"/>
	<circle class="st1_diversity-84" cx="267.1" cy="328.8" r="2.4"/>
	<circle class="st1_diversity-84" cx="267.1" cy="345.8" r="2.4"/>
</g>
<g id="character-1_diversity-84">
	<path class="st0_diversity-84 targetColor" d="M164.6,313.6v46c-7.2,3.4-14.8,6.1-22.5,8c-18.5,4.6-37.8,4.8-56.4,0.6c-0.7-0.1-1.3-0.3-2-0.4&#10;&#9;&#9;c-7.8-1.9-15.3-4.6-22.5-8v-46.1c0-19.3,15.7-35,35-35h33.4c2.5,0,4.9,0.3,7.3,0.8c0,0,0.1,0,0.1,0&#10;&#9;&#9;C153.1,282.8,164.6,297.1,164.6,313.6z" style="fill: rgb(104, 225, 253);"/>
	<path class="st1_diversity-84" d="M112.7,373.1c-9.2,0-18.4-1-27.4-3.1c-0.7-0.1-1.3-0.3-2-0.5c-7.9-1.9-15.6-4.6-22.9-8.1c-0.6-0.3-1-0.9-1-1.6&#10;&#9;&#9;v-46.2c0-20.3,16.5-36.8,36.8-36.8h33.4c2.6,0,5.2,0.3,7.7,0.8l0,0h0.2c16.9,3.7,28.9,18.7,28.9,35.9v46c0,0.7-0.4,1.3-1,1.6&#10;&#9;&#9;c-7.3,3.5-15,6.2-22.9,8.2C132.7,371.8,122.7,373.1,112.7,373.1z M62.9,358.7c6.8,3.1,13.9,5.6,21.2,7.3c0.6,0.1,1.2,0.3,1.9,0.4&#10;&#9;&#9;c18.3,4.2,37.4,4,55.6-0.5c7.3-1.8,14.4-4.3,21.2-7.4v-44.9c0-15.6-10.9-29.1-26.2-32.4l-0.2-0.1c-2.2-0.5-4.5-0.7-6.8-0.7H96.1&#10;&#9;&#9;c-18.3,0-33.2,14.9-33.2,33.2V358.7z M164.6,359.7L164.6,359.7z"/>
	<path class="st3_diversity-84" d="M109.3,130.4c3.6,1.8,6.4,4.8,7.9,8.5c2.6-3.7,7-5.8,11.5-5.6c2.7,0.1,5.2,0.8,7.5,2.2&#10;&#9;&#9;c2.2,1.3,3.4,4.1,5.5,5.3c2.3,1.2,4.2,0.3,6.7,0.3c3.6,0,7.1,0.6,10.5,1.7c3.3,1,6.8,2.2,8.9,5c2.4,3.1,2.3,7.2,1.8,10.9&#10;&#9;&#9;c11.6-4,15,13.8,9.2,20.6c6.8,7.3,5.1,20.8-3.4,26.1c3.2,2.6,2.1,7.6,0.7,11.5c-2.7,7.3-3.2,13.9-11.5,14.5c-4.4,0.3-8.9,0-13.3,0&#10;&#9;&#9;H52.5c1.7,0-4.8-10.1-5-10.5c-2.1-4.7-2.1-10-0.2-14.7c-7.7-5.7-7.6-19.2,0.2-24.8c-4.6-9.5,0.4-22.4,10.3-26.3&#10;&#9;&#9;c-0.9-6.5,4.1-12.8,10.2-15.3c6.5-2.7,13-1.5,19.7-1.3c1.6-6.1,9.2-9.9,15.2-9.7C105.1,128.8,107.3,129.4,109.3,130.4z"/>
	<path class="st1_diversity-84" d="M160.3,233.1c-1.5,0-3,0-4.5-0.1s-2.9-0.1-4.4-0.1H52.5c-1,0-1.8-0.8-1.8-1.8c0-0.3,0.1-0.5,0.2-0.8&#10;&#9;&#9;c-0.3-0.9-1.3-2.9-4.3-7.8c-0.4-0.7-0.7-1.1-0.7-1.2c-2-4.7-2.3-9.9-0.7-14.8c-7.1-7-7.2-18.5-0.2-25.6c0.1-0.1,0.2-0.2,0.3-0.3&#10;&#9;&#9;c-3.7-10.3,0.8-21.8,10.6-26.9c-0.3-7.2,5.3-13.3,11.4-15.8c5.6-2.3,11.2-2,16.5-1.6l2.6,0.1c2.5-6.1,10.3-9.9,16.5-9.6&#10;&#9;&#9;c2.5,0.1,4.9,0.8,7.2,1.9c3.1,1.5,5.7,3.9,7.5,6.9c3-2.8,7-4.4,11.2-4.2c3,0.1,5.9,0.9,8.4,2.4c1.2,0.8,2.3,1.8,3.1,3&#10;&#9;&#9;c0.6,0.9,1.4,1.6,2.3,2.2c1.1,0.6,2,0.5,3.5,0.3c0.8-0.1,1.5-0.2,2.3-0.2c3.7,0,7.5,0.6,11,1.8c3.5,1,7.4,2.4,9.9,5.6&#10;&#9;&#9;c2.2,2.9,2.6,6.4,2.4,9.6c3.6-0.5,7.1,1.2,9,4.2c3.5,5.1,3.6,13.5,0.5,18.5c5.9,8.3,4.6,19.7-3.1,26.5c1.7,2.7,1.6,6.6-0.3,11.8&#10;&#9;&#9;c-0.4,1.2-0.8,2.4-1.2,3.5c-1.9,5.9-3.7,11.5-11.8,12.2C163.4,233.1,161.8,233.1,160.3,233.1z M55.1,229.4h96.4&#10;&#9;&#9;c1.5,0,2.9,0,4.4,0.1c2.9,0.1,5.8,0.1,8.7-0.1c5.4-0.4,6.7-3.6,8.7-9.7c0.4-1.2,0.8-2.4,1.2-3.7c1.8-4.8,1.7-8-0.1-9.4&#10;&#9;&#9;c-0.8-0.6-0.9-1.7-0.3-2.5c0.1-0.2,0.3-0.3,0.5-0.4c7.2-5.1,9-15.1,3.9-22.3c-0.3-0.4-0.5-0.7-0.8-1.1c-0.6-0.7-0.6-1.7-0.1-2.4&#10;&#9;&#9;c3-3.5,3.1-11.2,0.2-15.4c-1.8-2.6-4.3-3.4-7.5-2.3c-0.6,0.2-1.2,0.1-1.7-0.3c-0.5-0.4-0.7-1-0.6-1.6c0.5-3.4,0.6-6.9-1.4-9.5&#10;&#9;&#9;c-1.8-2.4-5.1-3.5-8-4.4c-3.2-1.1-6.5-1.6-9.9-1.6c-0.6,0-1.3,0.1-1.9,0.2c-1.9,0.4-3.9,0.2-5.7-0.7c-1.3-0.8-2.4-1.8-3.4-3.1&#10;&#9;&#9;c-0.6-0.9-1.4-1.6-2.3-2.2c-2-1.2-4.3-1.8-6.6-1.9c-3.9-0.1-7.7,1.7-10,4.9c-0.5,0.8-1.7,1-2.5,0.5c-0.3-0.2-0.5-0.5-0.7-0.8&#10;&#9;&#9;c-1.4-3.3-3.9-6-7.1-7.6l0,0c-1.8-0.9-3.7-1.4-5.7-1.5c-5.2-0.2-12,3.1-13.4,8.3c-0.2,0.8-1,1.4-1.8,1.3c-1.3,0-2.7-0.1-4-0.2&#10;&#9;&#9;c-5.2-0.3-10.1-0.6-15,1.4c-5,2.1-9.9,7.5-9.1,13.4c0.1,0.8-0.3,1.6-1.1,1.9c-9.1,4-13.3,14.6-9.3,23.8c0.4,0.8,0.1,1.7-0.6,2.2&#10;&#9;&#9;c-6.1,5.1-6.9,14.1-1.8,20.2c0.5,0.6,1.1,1.2,1.7,1.7c0.7,0.5,0.9,1.4,0.6,2.1c-1.7,4.2-1.6,9,0.2,13.2c0,0,0.2,0.3,0.5,0.7&#10;&#9;&#9;c2.8,4.6,4.1,7.1,4.7,8.7L55.1,229.4z"/>
	<path class="st7_diversity-84" d="M104.5,271.9h17.6l0,0v13.5c0,2.3-1.9,4.1-4.2,4.1h-9.3c-2.3,0-4.2-1.9-4.2-4.1L104.5,271.9L104.5,271.9z"/>
	<path class="st1_diversity-84" d="M114.6,291.3H112c-5.1,0-9.3-4.2-9.3-9.3v-10.1c0-1,0.8-1.8,1.8-1.8h17.6c1,0,1.8,0.8,1.8,1.8V282&#10;&#9;&#9;C123.9,287.1,119.8,291.3,114.6,291.3C114.7,291.3,114.6,291.3,114.6,291.3z M106.3,273.7v8.3c0,3.1,2.5,5.7,5.7,5.7c0,0,0,0,0,0&#10;&#9;&#9;h2.7c3.1,0,5.7-2.5,5.7-5.7v-8.3L106.3,273.7z"/>
	<ellipse class="st7_diversity-84" cx="65.9" cy="226.2" rx="16.1" ry="14.7"/>
	<path class="st1_diversity-84" d="M65.9,242.7c-9.9,0-17.9-7.4-17.9-16.5s8-16.5,17.9-16.5s17.9,7.4,17.9,16.5S75.8,242.7,65.9,242.7z&#10;&#9;&#9; M65.9,213.2c-7.9,0-14.3,5.8-14.3,12.9s6.4,12.9,14.3,12.9s14.3-5.8,14.3-12.9S73.8,213.2,65.9,213.2z"/>
	<ellipse class="st7_diversity-84" cx="159.8" cy="226.2" rx="16.1" ry="14.7"/>
	<path class="st1_diversity-84" d="M159.8,242.7c-9.9,0-17.9-7.4-17.9-16.5s8-16.5,17.9-16.5s17.9,7.4,17.9,16.5S169.6,242.7,159.8,242.7z&#10;&#9;&#9; M159.8,213.2c-7.9,0-14.3,5.8-14.3,12.9s6.4,12.9,14.3,12.9s14.3-5.8,14.3-12.9S167.7,213.2,159.8,213.2z"/>
	<path class="st7_diversity-84" d="M113.3,274.2c-24,0-44.8-16.5-50.2-39.9c-2.2-9.6-1.3-18-0.4-27.7c0-1.8,0.5-3.6,1.2-5.3&#10;&#9;&#9;c-0.5,1,10.8-1.5,11.9-2.1c4.5-2.5,7.5-7.1,7.9-12.2c3.1,3,8.4,2.9,12.1,0.7s6.4-5.9,8.6-9.7c1.6,5,5.7,8.8,10.8,9.9&#10;&#9;&#9;c5.2,1,10.2-1.1,13.8-4.7c-0.2,5.7,3.9,9.8,9.8,10.3c4.5,0.3,8.8-1.7,11.3-5.4c0.3,6.9,6.2,12.2,13.1,11.8c0.8,0,1.5-0.1,2.3-0.3&#10;&#9;&#9;c0.1,4.1,1,8.4,0.6,12.5c-0.3,3.5-1.3,7-1.3,10.6C164.9,251.1,141.8,274.2,113.3,274.2z"/>
	<path class="st1_diversity-84" d="M113.3,276c-24.8,0-46.4-17.1-52-41.3c-2.2-9.4-1.4-17.6-0.5-27l0.1-1.2c0.1-2.1,0.5-4.1,1.4-6&#10;&#9;&#9;c0.5-0.9,1.6-1.2,2.4-0.7l0,0c3.5-0.4,6.9-1.1,10.2-2.2c4-2.2,6.6-6.2,7-10.7c0.1-1,1-1.7,1.9-1.6c0.4,0,0.8,0.2,1.1,0.5&#10;&#9;&#9;c2.6,2.5,7.1,2.1,10,0.5c3.5-2,6-5.7,7.9-9c0.5-0.9,1.6-1.1,2.5-0.6c0.4,0.2,0.7,0.6,0.8,1c1.4,4.4,5,7.7,9.5,8.7&#10;&#9;&#9;c4.2,0.9,8.7-0.7,12.2-4.2c0.7-0.7,1.8-0.7,2.5,0c0.4,0.4,0.6,0.8,0.5,1.3c-0.2,4.6,3.1,8,8.1,8.4c3.8,0.3,7.5-1.5,9.6-4.6&#10;&#9;&#9;c0.5-0.9,1.6-1.1,2.5-0.6c0.5,0.3,0.9,0.9,0.9,1.5c0.3,5.9,5.3,10.4,11.2,10.1c0.7,0,1.3-0.1,1.9-0.3c1-0.2,1.9,0.4,2.2,1.3&#10;&#9;&#9;c0,0.1,0,0.2,0,0.3c0.1,1.5,0.2,2.9,0.3,4.4c0.3,2.7,0.4,5.5,0.3,8.2c-0.1,1.5-0.4,3-0.6,4.5c-0.4,2-0.6,3.9-0.6,5.9&#10;&#9;&#9;C166.7,252.1,142.8,276,113.3,276z M65,203.3c-0.3,1.1-0.5,2.3-0.5,3.4l-0.1,1.2c-0.9,9.1-1.6,17,0.4,25.9&#10;&#9;&#9;c6.2,26.8,33,43.4,59.7,37.2c22.6-5.2,38.5-25.3,38.5-48.5c0.1-2.2,0.3-4.4,0.7-6.5c0.2-1.4,0.5-2.8,0.6-4.2c0.1-2.5,0-5.1-0.3-7.6&#10;&#9;&#9;c-0.1-0.9-0.2-1.8-0.2-2.6c-6.6,0.6-12.7-3.4-14.8-9.7c-2.9,2.4-6.6,3.6-10.4,3.3c-5.6-0.5-9.7-3.8-11-8.5&#10;&#9;&#9;c-3.6,2.7-8.2,3.7-12.7,2.9c-4.5-1-8.4-3.8-10.8-7.8c-1.9,3-4.4,5.5-7.4,7.4c-3.3,1.9-8,2.5-11.7,0.8c-1.3,4.5-4.2,8.4-8.3,10.7&#10;&#9;&#9;c-1.1,0.6-5.8,1.6-6.7,1.8C68.4,202.9,66.7,203.2,65,203.3z"/>
	<path class="st1_diversity-84" d="M113.1,233c-1.6,0-3.2-0.1-4.7-0.4c-1-0.2-1.7-1.1-1.5-2.1c0.2-1,1.1-1.7,2.1-1.5c2.2,0.4,4.5,0.4,6.7,0.1&#10;&#9;&#9;c0.1-1.6-1.7-6.4-4-10.9c-0.5-0.9-0.1-2,0.8-2.4c0.9-0.5,2-0.1,2.4,0.8c1.7,3.2,5.5,11.1,4,14.3c-0.3,0.8-1.1,1.4-1.9,1.6&#10;&#9;&#9;C115.7,232.8,114.4,233,113.1,233z"/>
	<path class="st8_diversity-84" d="M145.9,327.6v39.1c-9.4,2.4-23.1,4.6-33.2,4.6c-9.3,0-21.9-1.9-30.6-3.9v-41c0,0,7.6-1.4,9.6-47.8h6.7&#10;&#9;&#9;c0,0,1.1,20.8,16.3,44c0,0,13.6-22.6,14.9-44l7.3,0.8h0.1l0,0C136.8,280.3,134.5,309.8,145.9,327.6z"/>
	<path class="st1_diversity-84" d="M112.7,373.1c-9.6,0-22.5-2-31-4c-0.8-0.2-1.4-0.9-1.4-1.8v-41c0-0.8,0.5-1.5,1.2-1.7&#10;&#9;&#9;c0.5-0.3,6.7-5.5,8.3-46.1c0-1,0.8-1.7,1.8-1.7h6.7c1,0,1.8,0.8,1.8,1.7c0,0.2,1.1,19.1,14.4,40.6c3.5-6.5,12.2-24,13.2-40.6&#10;&#9;&#9;c0-0.5,0.3-0.9,0.6-1.3c0.4-0.3,0.9-0.5,1.4-0.4l7.3,0.8h0.2c0.9,0.1,1.5,0.9,1.5,1.8c0,0.1,0,0.3-0.1,0.4c0,0.2-2.4,29.5,8.7,46.8&#10;&#9;&#9;c0.2,0.3,0.3,0.6,0.3,1v39.1c0,0.8-0.6,1.5-1.4,1.7C137,370.7,123,373.1,112.7,373.1z M83.8,365.9c8.3,1.8,20,3.5,28.8,3.5&#10;&#9;&#9;c9.6,0,22.4-2.1,31.4-4.2v-37.2c-9.6-15.5-9.6-39.9-9.1-47.1l-3.8-0.4c-2,21-14.5,42-15,42.9c-0.3,0.5-0.9,0.9-1.5,0.9&#10;&#9;&#9;c-0.6,0-1.2-0.3-1.5-0.8c-13-19.8-15.9-37.7-16.5-43.2h-3.4c-1.6,35.3-6.6,44.6-9.5,47L83.8,365.9z M81.7,324.6L81.7,324.6z"/>
	<path class="st1_diversity-84" d="M114.6,373.1c-1,0-1.8-0.8-1.8-1.8v-48.7c0-1,0.8-1.8,1.8-1.8c1,0,1.8,0.8,1.8,1.8v48.7&#10;&#9;&#9;C116.4,372.3,115.6,373.1,114.6,373.1z"/>
</g>
</svg>