<svg version="1.1" id="Layer_1" xmlns="http://www.w3.org/2000/svg" xmlns:xlink="http://www.w3.org/1999/xlink" x="0px" y="0px" viewBox="0 0 500 500" style="width: 180px;" xml:space="preserve" data-imageid="global-warming-69" imageName="Global Warming" class="illustrations_image">
<style type="text/css">
	.st0_global-warming-69{fill:#68E1FD;}
	.st1_global-warming-69{fill:#093F68;}
	.st2_global-warming-69{fill:#70CC40;}
	.st3_global-warming-69{fill:#FFFFFF;}
	.st4_global-warming-69{fill:#F56132;}
</style>
<g id="globe_global-warming-69">
	<path class="st0_global-warming-69 targetColor" d="M401.5,218.7c0,84.4-62.5,155.7-146.2,166.8c-7.3,1-12.8,7.2-12.8,14.6v15.6c0,6.4-5.2,11.5-11.5,11.5&#10;&#9;&#9;c-0.4,0-0.8,0-1.1-0.1c-6-0.6-10.4-6-10.4-12v-22.4c0-3.6-2.7-6.6-6.3-7.1H213c-3.9-0.5-7.5,2.4-8,6.3c0,0.3,0,0.6,0,0.8V438&#10;&#9;&#9;c0,6.4-5.2,11.5-11.5,11.5c-0.4,0-0.8,0-1.1-0.1c-6-0.6-10.4-6-10.4-12v-37.4c0-12.1-7-23.1-18-28.1l-0.2-0.1&#10;&#9;&#9;c-1.8-0.8-3.9,0-4.8,1.8c-0.2,0.5-0.3,1-0.3,1.5v7.6c0,6-4.4,11.4-10.4,12c-6.4,0.6-12-4.1-12.6-10.4c0-0.4-0.1-0.7-0.1-1.1V368&#10;&#9;&#9;c0-7.5-3.3-14.6-9.1-19.3c-0.2-0.2-0.4-0.3-0.5-0.4C85.7,315.1,63.3,265.2,65,213.1c1.8-57.1,32.7-107.6,78.4-136.6&#10;&#9;&#9;c24.5-15.7,52.8-24.6,81.9-25.9c3.8-0.2,7.5-0.2,11.2-0.1c72.9,1.4,136.6,49.6,157.8,119.3c3.3,11,5.5,22.3,6.5,33.8&#10;&#9;&#9;C401.2,208.5,401.5,213.6,401.5,218.7z" style="fill: rgb(104, 225, 253);"/>
	<path class="st1_global-warming-69" d="M193.4,451.9c-0.4,0-0.9,0-1.3-0.1c-7-0.7-12.5-6.9-12.5-14.3v-37.4c0-11.2-6.5-21.4-16.7-26.1l-0.2-0.1&#10;&#9;&#9;c-0.4-0.2-0.9-0.2-1.3,0.1c-0.4,0.2-0.6,0.6-0.6,1.1v7.6c0,7.3-5.5,13.6-12.5,14.3c-7.6,0.7-14.4-4.9-15.1-12.5&#10;&#9;&#9;c0-0.4-0.1-0.9-0.1-1.3V368c0-6.8-3-13.2-8.2-17.5l-0.4-0.3C52,289.9,41.9,182.3,102.1,109.8c30.6-36.8,75.2-59.1,123-61.5&#10;&#9;&#9;c3.9-0.2,7.8-0.2,11.4-0.1c87.1,1.5,158.9,68.5,166.6,155.2c0.5,5,0.7,10.2,0.7,15.3c0,85.6-63.4,157.9-148.2,169.1&#10;&#9;&#9;c-6.2,0.8-10.8,6.1-10.8,12.3v15.6c0,7.6-6.2,13.8-13.8,13.8c-0.5,0-0.9,0-1.4-0.1c-7-0.7-12.5-6.9-12.5-14.3v-22.4&#10;&#9;&#9;c0-2.4-1.7-4.4-4.1-4.8h-0.3c-1.4-0.1-2.8,0.3-3.8,1.2c-1.1,0.9-1.7,2.3-1.6,3.7v45.2C207.3,445.7,201.1,451.9,193.4,451.9&#10;&#9;&#9;C193.4,451.9,193.4,451.9,193.4,451.9L193.4,451.9z M162.1,369.3c0.8,0,1.7,0.2,2.4,0.5l0.2,0.1c11.8,5.5,19.4,17.3,19.4,30.2v37.4&#10;&#9;&#9;c-0.1,4.9,3.5,9,8.3,9.7c2.6,0.3,5.2-0.6,7.1-2.4c1.9-1.8,3-4.2,3-6.8v-45.2c0-5.2,4.2-9.5,9.5-9.5c0.3,0,0.7,0,1,0.1h0.3&#10;&#9;&#9;c4.7,0.6,8.3,4.6,8.3,9.4v22.4c-0.1,4.9,3.5,9.1,8.3,9.7c2.6,0.3,5.2-0.6,7.1-2.3c1.9-1.8,3-4.2,3-6.9v-15.5&#10;&#9;&#9;c0-8.6,6.4-15.8,14.9-16.9c82.5-11,144.2-81.3,144.2-164.5c0-5-0.2-10-0.7-14.9c-7.4-84.4-77.4-149.6-162.1-151&#10;&#9;&#9;c-3.5-0.1-7.2-0.1-11.1,0.1c-91.6,4.4-162.2,82.2-157.8,173.8c2.2,46.6,24,90.1,59.8,119.8c0.2,0.1,0.4,0.3,0.6,0.5&#10;&#9;&#9;c6.3,5.2,9.9,12.9,9.8,21v15.2c0,5.1,4.2,9.3,9.3,9.3c0.3,0,0.6,0,0.9,0c4.8-0.6,8.4-4.8,8.3-9.7v-7.6&#10;&#9;&#9;C156.3,371.9,158.9,369.3,162.1,369.3L162.1,369.3z"/>
	<path class="st2_global-warming-69" d="M401.5,218.7c0,49.7-21.9,96.9-60,128.8c-0.2-0.5-0.4-0.9-0.6-1.4c-9-21.7-21.9-48.2-7.8-70.2&#10;&#9;&#9;c10.8-17,36.1-18.8,45.1-38.1c4.2-9.1,3.6-20.4,10.2-27.9c3.2-3.5,7.6-5.8,12.4-6.3C401.2,208.5,401.5,213.6,401.5,218.7z"/>
	<path class="st1_global-warming-69" d="M341.5,349.8c-0.2,0-0.4,0-0.6-0.1c-0.7-0.2-1.3-0.7-1.6-1.4l-0.3-0.6l-0.3-0.8l-1.9-4.6&#10;&#9;&#9;c-8.7-20.6-19.4-46.2-5.7-67.7c5.4-8.5,14-13.3,22.4-18c9.3-5.2,18.1-10.2,22.6-19.8c1.5-3.6,2.6-7.3,3.4-11.1&#10;&#9;&#9;c1.4-6.1,2.9-12.4,7.2-17.4c3.6-4,8.5-6.4,13.8-7c1.3-0.2,2.4,0.7,2.6,2c0,0,0,0.1,0,0.1c0.5,5,0.7,10.2,0.7,15.3&#10;&#9;&#9;c0,50.4-22.2,98.2-60.8,130.6C342.5,349.7,342,349.8,341.5,349.8z M398.7,206.3c-3.3,0.8-6.3,2.5-8.5,5.1&#10;&#9;&#9;c-3.6,4.1-4.9,9.6-6.2,15.4c-0.8,4.1-2,8.1-3.7,12c-5.1,10.9-15,16.4-24.5,21.8c-8.2,4.6-16,9-20.7,16.5&#10;&#9;&#9;c-12.4,19.5-2.6,42.9,6.1,63.5c0.4,1,0.9,2.1,1.3,3.1c36.1-31.5,56.8-77.1,56.8-125C399.2,214.5,399,210.4,398.7,206.3L398.7,206.3&#10;&#9;&#9;z"/>
	<path class="st2_global-warming-69" d="M394.3,169.8c-1.7,0.5-3.4,0.9-5.1,1.3c-21.6,4.6-44.1,0.6-62.8-11.1c-13.7-8.7-25.1-21.5-40.6-26.4&#10;&#9;&#9;c-45.8-14.3-48.1-9.9-47.8-60.9c0-6.8-0.7-14.4-1.5-22.3C309.3,51.9,373.1,100,394.3,169.8z"/>
	<path class="st1_global-warming-69" d="M371.5,175.3c-16.4,0-32.5-4.6-46.4-13.4c-4.8-3.1-9.4-6.6-13.8-10.1c-8.5-6.7-16.5-13-26.3-16&#10;&#9;&#9;c-4.2-1.3-8-2.5-11.5-3.5c-36.8-11.1-38.2-13.3-38-59.6c0-6.4-0.7-13.6-1.4-21.2l-0.1-0.9c-0.1-1.3,0.8-2.4,2.1-2.5&#10;&#9;&#9;c0.1,0,0.2,0,0.3,0c74,1.2,138.7,50.1,160,121c0.4,1.2-0.3,2.5-1.5,2.9c-1.6,0.5-3.4,0.9-5.3,1.4&#10;&#9;&#9;C383.7,174.7,377.6,175.3,371.5,175.3z M239,52.8c0.7,7.1,1.2,13.8,1.2,20c-0.2,44.6,0.4,44.8,34.7,55.1c3.5,1.1,7.3,2.2,11.5,3.5&#10;&#9;&#9;c10.5,3.3,19.3,10.1,27.8,16.8c4.3,3.4,8.8,6.9,13.4,9.8c18.1,11.4,40,15.3,61,10.9c1-0.2,1.9-0.4,2.7-0.7&#10;&#9;&#9;C370.2,101.4,309.1,55.1,239,52.8z"/>
	<path class="st2_global-warming-69" d="M238,206.4c-13.4,15.4-33,23.8-50.8,33.9c-10.7,6-22.3,15.7-20.4,27.8c1.7,11.3,12.8,18.9,5.3,29.8&#10;&#9;&#9;c-7.3,10.5-22,4.6-31.1,7.6c-3.2,1.1-4.8,4.6-6,7.8c-2.7,7.2-4.8,16-6.8,25.2c-0.7,3.2-1.5,6.5-2.2,9.8&#10;&#9;&#9;C85.7,315.1,63.2,265.2,65,213.1c1.8-57.1,32.7-107.6,78.4-136.6c10.1,18.4,11.7,41.5,1.8,60.1c-6.2,11.8-16.8,22.7-15.7,36&#10;&#9;&#9;c0.9,10.8,10.9,20.1,21.7,20.3s21.1-8.9,22.2-19.7c0.7-6.2-1.3-12.6,0.1-18.7c3.5-15,23.5-18.1,38.7-15.9&#10;&#9;&#9;c10.8,1.5,22,4.4,29.6,12.1C256.2,165.2,251.5,190.9,238,206.4z"/>
	<path class="st1_global-warming-69" d="M125.8,350.5c-0.5,0-1.1-0.2-1.5-0.5c-72.5-60-82.6-167.4-22.6-239.9c11.5-13.9,25.1-25.9,40.4-35.5&#10;&#9;&#9;c0.5-0.3,1.2-0.4,1.8-0.3c0.6,0.2,1.1,0.6,1.4,1.1c11,20,11.7,43.9,1.8,62.3c-1.7,3.2-3.8,6.4-5.8,9.5c-5.4,8.4-10.4,16.2-9.7,25.2&#10;&#9;&#9;c0.8,9.7,9.7,18,19.5,18.2s18.9-8,19.9-17.7c0.2-2.6,0.1-5.2-0.1-7.8c-0.3-3.6-0.6-7.4,0.3-11.1c3.7-15.8,23.4-20.2,41.2-17.7&#10;&#9;&#9;c9.9,1.4,22.4,4.1,30.9,12.8c15.6,15.7,10.2,42.8-3.7,58.8l0,0c-11,12.6-25.9,20.6-40.4,28.3c-3.7,2-7.4,4-11.1,6.1&#10;&#9;&#9;c-9.7,5.5-21,14.4-19.3,25.5c0.6,3.7,2.3,7,3.9,10.3c3.2,6.4,6.6,13,0.9,21.1c-5.5,7.8-14.2,7.7-21.9,7.6c-3.9,0-7.5-0.1-10.3,0.9&#10;&#9;&#9;c-2.2,0.7-3.5,3.5-4.6,6.4c-2.6,7-4.6,15.4-6.8,24.9c-0.7,3.2-1.5,6.5-2.2,9.8c-0.2,0.8-0.8,1.4-1.5,1.6&#10;&#9;&#9;C126.3,350.5,126.1,350.5,125.8,350.5z M142.5,79.8c-76.7,50-98.4,152.7-48.4,229.4c8.4,13,18.7,24.7,30.4,34.8&#10;&#9;&#9;c0.5-2,0.9-4.1,1.4-6.1c2.2-9.7,4.2-18.3,6.9-25.6c1.4-3.8,3.4-7.8,7.5-9.1c3.6-1.2,7.6-1.1,11.8-1.1c7.2,0.1,14,0.2,18.1-5.7&#10;&#9;&#9;s1.7-10.5-1.3-16.4c-1.8-3.6-3.7-7.3-4.4-11.7c-2.1-13.6,10.6-23.9,21.6-30.1c3.7-2.1,7.4-4.1,11.2-6.1&#10;&#9;&#9;c14.1-7.6,28.6-15.4,39.1-27.3c16.1-18.6,14.6-41.7,3.9-52.5c-7.6-7.7-19.1-10.2-28.3-11.5c-15.3-2.2-33.1,1.4-36.1,14.2&#10;&#9;&#9;c-0.7,3.1-0.5,6.3-0.2,9.7c0.3,2.9,0.4,5.8,0.1,8.7c-1.3,11.9-12.4,21.8-24.3,21.8h-0.2c-12-0.2-23-10.4-24-22.4&#10;&#9;&#9;c-0.8-10.5,4.9-19.4,10.4-28c1.9-3,3.9-6.1,5.6-9.2C151.9,119.2,151.6,98,142.5,79.8z M238,206.4L238,206.4z"/>
	<path class="st2_global-warming-69" d="M320.5,248.7c4.2-12-11.5-53.6-28.4-35.3c-4.5,4.9-1.9,13.8-6.7,18.3c-2.2,2.1-5.5,2.7-8.1,4.1&#10;&#9;&#9;c-15.7,8.7,0,24.4,10.3,28.2C300.1,268.9,316,261.4,320.5,248.7z"/>
	<path class="st1_global-warming-69" d="M295.6,267.9c-3.1,0-6.1-0.5-9-1.6c-7.3-2.7-17.8-11.3-18.4-20.2c-0.2-3.5,0.9-8.4,7.8-12.2&#10;&#9;&#9;c1.1-0.6,2.2-1.1,3.4-1.5c1.6-0.5,3-1.3,4.3-2.3c1.9-1.8,2.3-4.8,2.8-8c0.5-3.4,1.1-7.4,3.8-10.3c7-7.6,13.5-5.4,16.8-3.4&#10;&#9;&#9;c11.6,7,18.7,31.9,15.5,41c-2.6,7-7.8,12.6-14.6,15.7C304.1,266.9,299.9,267.8,295.6,267.9z M300.8,211.1c-2.3,0-4.7,1.3-7,3.8&#10;&#9;&#9;c-1.7,1.9-2.1,4.8-2.6,7.8c-0.5,3.6-1.2,7.7-4.2,10.6c-1.7,1.4-3.6,2.5-5.8,3.2c-1,0.4-1.9,0.8-2.9,1.3c-3.9,2.1-5.7,4.7-5.4,7.9&#10;&#9;&#9;c0.5,6.6,9.3,13.9,15.4,16.2c12.1,4,25.3-2.2,30-14.1l0,0c2.6-7.5-3.9-29.8-13.5-35.6C303.6,211.6,302.2,211.1,300.8,211.1&#10;&#9;&#9;L300.8,211.1z"/>
	<path class="st0_global-warming-69 targetColor" d="M282.2,348.6c3.6,1.2,7.7,2.3,7.7,10.3v22.8c0,6,4.9,10.8,10.8,10.8c0,0,0,0,0,0l0,0c6,0,10.8-4.9,10.8-10.8&#10;&#9;&#9;v-29.2c0,0,0.4-6.7,4.1-10.9" style="fill: rgb(104, 225, 253);"/>
	<path class="st1_global-warming-69" d="M300.8,394.9c-7.3,0-13.1-5.9-13.1-13.1V359c0-6.1-2.4-6.9-5.8-8l-0.4-0.1c-1.2-0.4-1.8-1.8-1.4-3&#10;&#9;&#9;c0.4-1.1,1.7-1.8,2.8-1.4l0.4,0.1c3.8,1.2,8.9,3,8.9,12.4v22.8c0.2,4.7,4.1,8.4,8.8,8.3c4.5-0.2,8.1-3.8,8.3-8.3v-29.2&#10;&#9;&#9;c0-0.4,0.5-7.6,4.6-12.4c0.8-1,2.3-1.1,3.2-0.2c1,0.8,1.1,2.3,0.2,3.2l0,0c-2.6,3-3.4,7.9-3.5,9.6v29&#10;&#9;&#9;C313.9,389,308,394.9,300.8,394.9z"/>
	<circle class="st0_global-warming-69 targetColor" cx="300.8" cy="410.2" r="9.8" style="fill: rgb(104, 225, 253);"/>
	<path class="st1_global-warming-69" d="M300.8,422.4c-6.7,0-12.1-5.4-12.1-12.1s5.4-12.1,12.1-12.1s12.1,5.4,12.1,12.1l0,0&#10;&#9;&#9;C312.9,416.9,307.5,422.4,300.8,422.4z M300.8,402.7c-4.2,0-7.5,3.4-7.5,7.5s3.4,7.5,7.5,7.5c4.2,0,7.5-3.4,7.5-7.5c0,0,0,0,0,0&#10;&#9;&#9;C308.3,406.1,304.9,402.7,300.8,402.7L300.8,402.7z"/>
	<path class="st2_global-warming-69" d="M202.5,333c1.5,5,7.4,7.2,12.6,7.5c10.8,0.7,21.3-3.6,28.6-11.6c1.5-1.7,2.9-3.7,2.9-6&#10;&#9;&#9;c-0.1-4.1-4.9-6.4-6.6-10.1c-1.9-4.1,0.1-8.8,0.9-13.2c2.5-13.2-6.3-25.9-19.5-28.4c-3.3-0.6-6.8-0.5-10.1,0.2&#10;&#9;&#9;c-0.8,0.1-1.5,0.5-2,1c-0.4,0.6-0.6,1.3-0.5,2c-0.1,11.5,21.1,15.9,9,25.8c-7,5.7-8.6,5.9-10.8,14.8&#10;&#9;&#9;C205.6,320.7,200.7,327.1,202.5,333z"/>
	<path class="st1_global-warming-69" d="M217.4,342.9c-0.8,0-1.6,0-2.4-0.1c-5.8-0.4-12.7-3-14.6-9.2l0,0c-1.5-4.8,0.6-9.5,2.4-13.7&#10;&#9;&#9;c0.8-1.7,1.5-3.5,2-5.4c2-8.1,3.6-9.8,9.1-14.1c0.7-0.6,1.6-1.2,2.4-2c1.9-1.5,2.9-2.9,2.9-4.1c0.1-1.9-2.3-4.1-4.8-6.5&#10;&#9;&#9;c-3.5-3.4-7.9-7.6-7.9-13.4c0-1.2,0.3-2.4,1.1-3.4c0.8-0.9,2-1.6,3.2-1.8c14.3-3.4,28.7,5.5,32.1,19.8c0.9,3.6,1,7.4,0.3,11&#10;&#9;&#9;c-0.2,1.1-0.5,2.1-0.7,3.2c-0.8,3.2-1.5,6.2-0.4,8.6c0.7,1.3,1.6,2.4,2.7,3.5c1.9,2,4,4.3,4.1,7.6s-1.9,5.9-3.4,7.6&#10;&#9;&#9;C238.2,338.3,228,342.8,217.4,342.9z M204.7,332.3c1.2,3.9,6.2,5.6,10.5,5.9c10.1,0.6,19.9-3.4,26.8-10.8c1.6-1.8,2.3-3.1,2.3-4.3&#10;&#9;&#9;c-0.1-1.6-1.4-3-2.9-4.6c-1.4-1.4-2.6-2.9-3.5-4.7c-1.8-3.9-0.8-8,0.1-11.6c0.2-1,0.5-2,0.7-3c2.3-11.9-5.6-23.4-17.5-25.7&#10;&#9;&#9;c-3.1-0.6-6.2-0.5-9.2,0.2c-0.2,0.1-0.5,0.1-0.7,0.2c0,0.2,0,0.3,0,0.5c0,3.9,3.3,7,6.5,10.1s6.4,6.1,6.2,10&#10;&#9;&#9;c-0.1,2.6-1.6,5-4.6,7.5c-0.9,0.8-1.8,1.4-2.5,2c-4.8,3.8-5.8,4.6-7.5,11.5c-0.6,2.1-1.3,4.1-2.2,6.1&#10;&#9;&#9;C205.4,325.4,203.7,329.1,204.7,332.3L204.7,332.3z"/>
</g>
<g id="temperature_global-warming-69">
	<path class="st3_global-warming-69" d="M415.7,320.6V194.5c-0.3-11.9-10.1-21.3-21.9-21c-11.5,0.2-20.8,9.5-21,21v126.2c-19.2,11.9-25.1,37-13.3,56.2&#10;&#9;&#9;s37,25.1,56.2,13.3s25.1-37,13.3-56.2C425.7,328.5,421.1,324,415.7,320.6z"/>
	<path class="st1_global-warming-69" d="M394.3,398.5c-23.8,0-43.1-19.3-43.1-43.1c0-14.5,7.3-28,19.4-36V194.5c0.3-13.1,11.1-23.5,24.3-23.3&#10;&#9;&#9;c12.7,0.3,23,10.5,23.3,23.3v124.9c19.9,13.1,25.3,39.9,12.2,59.7C422.3,391.2,408.7,398.5,394.3,398.5z M394.3,175.3&#10;&#9;&#9;c-10.6,0-19.2,8.6-19.2,19.2v126.2c0,0.8-0.4,1.6-1.1,2c-18.1,11.2-23.7,34.9-12.5,53c11.2,18.1,34.9,23.7,53,12.5&#10;&#9;&#9;s23.7-34.9,12.5-53c-3.1-5.1-7.4-9.4-12.5-12.5c-0.7-0.4-1.1-1.2-1.1-2V194.5C413.4,183.9,404.8,175.3,394.3,175.3L394.3,175.3z"/>
	<path class="st4_global-warming-69" d="M403.2,331.4V193.3c0.2-4.9-3.7-9-8.6-9.2c-4.9-0.2-9,3.7-9.2,8.6c0,0.2,0,0.4,0,0.6v138.1&#10;&#9;&#9;c-13.2,4.9-19.9,19.6-15,32.8s19.6,19.9,32.8,15s19.9-19.6,15-32.8C415.6,339.5,410.1,334,403.2,331.4z"/>
	<path class="st1_global-warming-69" d="M394.3,383.1c-15.4,0-27.9-12.4-27.9-27.8c0-11.1,6.5-21.1,16.6-25.5V193.3c0.2-6.2,5.4-11.1,11.6-10.9&#10;&#9;&#9;c5.9,0.2,10.7,4.9,10.9,10.9v136.6c14.1,6.2,20.5,22.6,14.3,36.7C415.3,376.6,405.3,383.2,394.3,383.1L394.3,383.1z M394.3,186.7&#10;&#9;&#9;c-3.7,0-6.6,3-6.6,6.6v138.1c0,1-0.6,1.8-1.5,2.1c-12,4.5-18.2,17.9-13.7,29.9c4.5,12,17.9,18.2,29.9,13.7&#10;&#9;&#9;c12-4.5,18.2-17.9,13.7-29.9c-2.4-6.3-7.3-11.3-13.7-13.7c-0.9-0.3-1.5-1.2-1.5-2.1V193.3C400.9,189.6,397.9,186.7,394.3,186.7&#10;&#9;&#9;L394.3,186.7z"/>
</g>
</svg>