<svg width="60" height="60" viewBox="0 0 60 60" fill="none" xmlns="http://www.w3.org/2000/svg">
<path fill-rule="evenodd" clip-rule="evenodd" d="M30 0C13.431 0 0 13.431 0 30C0 46.569 13.431 60 30 60C46.569 60 60 46.569 60 30C60 13.431 46.569 0 30 0ZM6 30C6.00097 25.0051 7.56037 20.1349 10.4608 16.0684C13.3613 12.0018 17.4583 8.94159 22.1806 7.3142C26.903 5.68682 32.0155 5.57341 36.8054 6.98976C41.5953 8.40612 45.824 11.2817 48.9019 15.2156C51.9799 19.1495 53.7537 23.9457 53.9762 28.9357C54.1987 33.9257 52.8587 38.8607 50.1431 43.0529C47.4274 47.2451 43.4715 50.4856 38.8266 52.3226C34.1818 54.1596 29.0795 54.5017 24.231 53.301L26.385 43.179C28.446 44.967 31.005 45.648 33.462 45.603C36.156 45.552 38.862 44.643 41.127 43.218C43.383 41.799 45.399 39.738 46.503 37.197C47.6963 34.4578 48.1889 31.4645 47.9365 28.4873C47.684 25.5101 46.6944 22.6426 45.0569 20.1434C43.4194 17.6442 41.1856 15.5919 38.5568 14.1717C35.9281 12.7514 32.9871 12.0079 29.9992 12.0082C27.0113 12.0085 24.0705 12.7525 21.442 14.1732C18.8135 15.5939 16.58 17.6466 14.943 20.1461C13.3059 22.6456 12.3168 25.5134 12.0649 28.4906C11.813 31.4678 12.3062 34.461 13.5 37.2C13.6494 37.5729 13.8721 37.912 14.1551 38.1972C14.438 38.4824 14.7753 38.7079 15.147 38.8603C15.5187 39.0127 15.9172 39.0888 16.3189 39.0843C16.7206 39.0797 17.1173 38.9945 17.4855 38.8338C17.8536 38.673 18.1857 38.4399 18.4621 38.1484C18.7385 37.8568 18.9535 37.5128 19.0944 37.1365C19.2352 36.7603 19.2991 36.3597 19.2822 35.9583C19.2653 35.5569 19.168 35.163 18.996 34.8C18.2849 33.1653 17.947 31.3926 18.0068 29.6109C18.0665 27.8292 18.5226 26.0832 19.3417 24.4998C20.1608 22.9164 21.3224 21.5354 22.742 20.4571C24.1617 19.3789 25.8038 18.6305 27.5489 18.2664C29.294 17.9022 31.0983 17.9315 32.8307 18.352C34.5632 18.7726 36.1801 19.5738 37.564 20.6975C38.948 21.8212 40.0642 23.2392 40.8315 24.8483C41.5989 26.4574 41.998 28.2173 42 30C42 33.285 40.77 36.351 37.929 38.139C36.465 39.063 34.812 39.579 33.351 39.603C31.92 39.633 30.825 39.201 30.066 38.406C29.322 37.626 28.503 36.12 28.503 33.3C28.503 31.5 29.19 30 30.012 26.124C30.101 25.7361 30.1118 25.3344 30.044 24.9422C29.9762 24.5501 29.8311 24.1753 29.617 23.8398C29.4029 23.5043 29.1243 23.2148 28.7972 22.988C28.4702 22.7612 28.1013 22.6018 27.712 22.519C27.3227 22.4363 26.9209 22.4318 26.5298 22.5058C26.1388 22.5798 25.7664 22.7309 25.4344 22.9503C25.1023 23.1696 24.8172 23.4528 24.5957 23.7835C24.3741 24.1141 24.2206 24.4855 24.144 24.876L18.564 51.105C14.763 49.0449 11.5891 45.9964 9.37761 42.2815C7.16611 38.5666 5.99913 34.3233 6 30Z" fill="#333333"/>
</svg>
