<svg width="44" height="40" viewBox="0 0 44 40" fill="none" xmlns="http://www.w3.org/2000/svg">
<path fill-rule="evenodd" clip-rule="evenodd" d="M0 3.33333C0 2.44928 0.327359 1.60143 0.910061 0.976311C1.49276 0.35119 2.28308 0 3.10714 0H40.3929C41.2169 0 42.0072 0.35119 42.5899 0.976311C43.1726 1.60143 43.5 2.44928 43.5 3.33333C43.5 4.21739 43.1726 5.06523 42.5899 5.69036C42.0072 6.31548 41.2169 6.66667 40.3929 6.66667H3.10714C2.28308 6.66667 1.49276 6.31548 0.910061 5.69036C0.327359 5.06523 0 4.21739 0 3.33333ZM0 20C0 19.1159 0.327359 18.2681 0.910061 17.643C1.49276 17.0179 2.28308 16.6667 3.10714 16.6667H40.3929C41.2169 16.6667 42.0072 17.0179 42.5899 17.643C43.1726 18.2681 43.5 19.1159 43.5 20C43.5 20.8841 43.1726 21.7319 42.5899 22.357C42.0072 22.9821 41.2169 23.3333 40.3929 23.3333H3.10714C2.28308 23.3333 1.49276 22.9821 0.910061 22.357C0.327359 21.7319 0 20.8841 0 20ZM18.6429 36.6667C18.6429 35.7826 18.9702 34.9348 19.5529 34.3096C20.1356 33.6845 20.9259 33.3333 21.75 33.3333H40.3929C41.2169 33.3333 42.0072 33.6845 42.5899 34.3096C43.1726 34.9348 43.5 35.7826 43.5 36.6667C43.5 37.5507 43.1726 38.3986 42.5899 39.0237C42.0072 39.6488 41.2169 40 40.3929 40H21.75C20.9259 40 20.1356 39.6488 19.5529 39.0237C18.9702 38.3986 18.6429 37.5507 18.6429 36.6667Z" fill="#333333"/>
</svg>
